<svg width="40" height="40" viewBox="0 0 40 40" fill="none" xmlns="http://www.w3.org/2000/svg">
<path d="M15 36.6667H25C33.3334 36.6667 36.6667 33.3334 36.6667 25V15C36.6667 6.66671 33.3334 3.33337 25 3.33337H15C6.66671 3.33337 3.33337 6.66671 3.33337 15V25C3.33337 33.3334 6.66671 36.6667 15 36.6667Z" stroke="#008EC4" stroke-width="2.5" stroke-linecap="round" stroke-linejoin="round"/>
<path d="M22.7833 12.5166C21.95 12.2666 21.0333 12.1 20 12.1C15.4 12.1 11.6666 15.8333 11.6666 20.4333C11.6666 25.0333 15.4 28.7666 20 28.7666C24.6 28.7666 28.3333 25.0333 28.3333 20.4333C28.3333 18.7166 27.8166 17.1333 26.9333 15.8" stroke="#008EC4" stroke-width="2.5" stroke-linecap="round" stroke-linejoin="round"/>
<path d="M23.9666 12.75L21.2 9.56665" stroke="#008EC4" stroke-width="2.5" stroke-linecap="round" stroke-linejoin="round"/>
<path d="M23.9666 12.75L20.7333 15.1167" stroke="#008EC4" stroke-width="2.5" stroke-linecap="round" stroke-linejoin="round"/>
</svg>
