<svg width="40" height="40" viewBox="0 0 40 40" fill="none" xmlns="http://www.w3.org/2000/svg">
<path d="M17.4833 3.71672L9.16668 6.83338C7.25001 7.55005 5.68335 9.8167 5.68335 11.8667V24.25C5.68335 26.2167 6.98337 28.8 8.5667 29.9834L15.7333 35.3334C18.0833 37.1001 21.95 37.1001 24.3 35.3334L31.4667 29.9834C33.05 28.8 34.35 26.2167 34.35 24.25V11.8667C34.35 9.8167 32.7833 7.55005 30.8667 6.83338L22.55 3.71672C21.1333 3.20006 18.8667 3.20006 17.4833 3.71672Z" stroke="#008EC4" stroke-width="2.5" stroke-linecap="round" stroke-linejoin="round"/>
<path d="M20.0001 18.2001C19.9335 18.2001 19.8501 18.2001 19.7835 18.2001C18.2168 18.1501 16.9668 16.8501 16.9668 15.2667C16.9668 13.6501 18.2835 12.3334 19.9001 12.3334C21.5168 12.3334 22.8335 13.6501 22.8335 15.2667C22.8168 16.8667 21.5668 18.1501 20.0001 18.2001Z" stroke="#008EC4" stroke-width="2.5" stroke-linecap="round" stroke-linejoin="round"/>
<path d="M16.6834 22.8668C15.0834 23.9335 15.0834 25.6835 16.6834 26.7502C18.5001 27.9668 21.4834 27.9668 23.3001 26.7502C24.9001 25.6835 24.9001 23.9335 23.3001 22.8668C21.5001 21.6502 18.5167 21.6502 16.6834 22.8668Z" stroke="#008EC4" stroke-width="2.5" stroke-linecap="round" stroke-linejoin="round"/>
</svg>
